HIERARCHY
ROOT Hips
{
  OFFSET -213.699 104.721 0.752556
  CHANNELS 6 Xposition Yposition Zposition Zrotation Xrotation Yrotation
  JOINT RightUpLeg
  {
    OFFSET -8.9458 -8.66707 0.101652
    CHANNELS 3 Zrotation Xrotation Yrotation
    JOINT RightLeg
    {
      OFFSET 0 -44.4227 1.3727
      CHANNELS 3 Zrotation Xrotation Yrotation
      JOINT RightFoot
      {
        OFFSET 0.253549 -42.0924 -1.46059
        CHANNELS 3 Zrotation Xrotation Yrotation
        JOINT RightToes
        {
          OFFSET 0.04 -4.41509 8.4991
          CHANNELS 3 Zrotation Xrotation Yrotation
          End Site
          {
            OFFSET -0.08 -0.137448 9.77979
          }
        }
      }
    }
  }
  JOINT Spine
  {
    OFFSET 0 11.8905 0
    CHANNELS 3 Zrotation Xrotation Yrotation
    JOINT Spine1
    {
      OFFSET 0 25.6574 0.127663
      CHANNELS 3 Zrotation Xrotation Yrotation
      JOINT HEad
      {
        OFFSET 0 8.73416 0.011341
        CHANNELS 3 Zrotation Xrotation Yrotation
        End Site
        {
          OFFSET -0.29 12.7742 2.51395
        }
      }
      JOINT LeftShoulder1
      {
        OFFSET 8.99 -0.362252 -0.22
        CHANNELS 3 Zrotation Xrotation Yrotation
        JOINT LeftArm
        {
          OFFSET 10.2827 -0.00337999 0.322123
          CHANNELS 3 Zrotation Xrotation Yrotation
          JOINT LeftForeArm
          {
            OFFSET 26.2597 0.099144 -1.42434
            CHANNELS 3 Zrotation Xrotation Yrotation
            JOINT LeftHand
            {
              OFFSET 22.0902 0.085362 1.02216
              CHANNELS 3 Zrotation Xrotation Yrotation
              End Site
              {
                OFFSET 13.419 -0.6 1.50291
              }
            }
          }
        }
      }
      JOINT RightShoulder
      {
        OFFSET -8.99 -0.362252 -0.22
        CHANNELS 3 Zrotation Xrotation Yrotation
        JOINT RightArm
        {
          OFFSET -10.2827 -0.00338 0.322123
          CHANNELS 3 Zrotation Xrotation Yrotation
          JOINT RightForeArm
          {
            OFFSET -26.364 0.099144 -1.42434
            CHANNELS 3 Zrotation Xrotation Yrotation
            JOINT RightHand
            {
              OFFSET -22.0324 0.085362 1.02216
              CHANNELS 3 Zrotation Xrotation Yrotation
              End Site
              {
                OFFSET -13.3284 -0.6 1.50291
              }
            }
          }
        }
      }
    }
  }
  JOINT LeftUpLeg
  {
    OFFSET 8.9458 -8.66707 0.101652
    CHANNELS 3 Zrotation Xrotation Yrotation
    JOINT LeftLeg
    {
      OFFSET 0 -44.4227 1.3727
      CHANNELS 3 Zrotation Xrotation Yrotation
      JOINT LeftFoot
      {
        OFFSET -0.253549 -42.0924 -1.46059
        CHANNELS 3 Zrotation Xrotation Yrotation
        JOINT LeftToes
        {
          OFFSET -0.04 -4.41509 8.4991
          CHANNELS 3 Zrotation Xrotation Yrotation
          End Site
          {
            OFFSET 0.08 -0.047448 9.77979
          }
        }
      }
    }
  }
}
MOTION
Frames:	21
Frame Time:	0.0333333
-204.364 100.593 40.1483 -1.41428 3.67827 -164.589 5.57517 8.36828 -0.519872 -2.67718 20.8606 0.483556 -7.12681 -19.5512 -1.01243 0.0462048 0.000530889 0.662642 -3.19973 11.5778 -0.633723 3.62797 2.22642 -1.68362 6.60892 15.5381 -26.0967 -32.5134 -4.06611 14.0235 -68.2408 -48.7837 -29.6906 -170.268 69.9127 170.732 8.63651 8.93901 -8.83121 29.039 -1.18247 -7.48734 50.2788 -18.0189 22.0113 7.91696 56.9275 7.84894 -2.92835 9.7667 1.69768 1.54112 -22.7176 -1.64441 2.83976 7.42138 -5.44601 -2.74721 0.111648 0.167401 -1.32485e-009 8.75259e-006 -1.47734e-008 
-206.022 100.154 37.0068 -1.79546 4.07015 -166.632 4.62097 10.378 1.3027 -3.17436 22.469 0.906189 -5.64521 -20.7789 -0.924676 0.0462048 0.000530889 0.662642 -3.60985 11.5021 -0.605798 3.25337 2.40206 -1.58202 6.57225 16.1953 -25.7136 -32.9529 -4.25061 14.3759 -68.0126 -49.6695 -30.4138 -171.848 67.0132 173.251 8.63365 8.94426 -8.766 29.2265 -1.17463 -7.44427 49.8134 -18.3343 20.9453 8.14554 57.3513 7.57314 -2.55539 9.78994 1.67534 0.982288 -22.0355 -2.09974 2.65297 5.82336 -7.46347 -4.44585 -0.502583 0.269474 -1.32485e-009 8.75259e-006 -1.47734e-008 
-207.761 99.871 33.7005 -2.00317 4.16239 -168.732 4.03821 11.5845 7.61086 -2.74212 25.1709 -3.27877 -2.91033 -21.121 -0.615692 0.0462048 0.000530889 0.662642 -3.65591 11.0875 -0.58178 2.50327 2.45191 -1.31614 6.4724 17.1827 -25.4476 -33.2936 -4.44951 14.7806 -67.8465 -50.8077 -30.622 -172.356 65.6446 174.725 8.70328 8.965 -8.3269 29.1415 -1.19584 -7.51428 49.8768 -19.7556 19.1156 7.75972 58.8067 7.58306 -2.49064 9.79258 1.79311 -0.0551691 -22.3735 -3.43902 3.22052 9.03143 -5.93194 -4.76273 0.889337 0.315009 -1.32485e-009 8.75259e-006 -1.47734e-008 
-209.525 99.6361 30.1538 -1.95535 4.54874 -170.466 3.0875 12.2205 11.9453 -0.838289 29.3244 -6.05463 -0.742143 -20.4381 -0.341032 0.0462048 0.000530889 0.662642 -3.85443 10.6163 -0.615825 2.53714 2.70382 -1.29653 5.95117 17.7957 -24.9946 -33.7351 -4.70526 15.2956 -67.8791 -51.9363 -30.8675 -172.474 65.1062 175.773 8.67163 8.97993 -8.16746 28.9358 -1.25954 -7.7181 50.4361 -22.8528 17.1446 5.97359 61.7141 8.49889 -2.05878 9.81508 2.24548 -1.09526 -22.7378 -7.07765 3.24388 14.6097 -2.74642 -1.88236 5.20382 0.169704 -1.32485e-009 8.75259e-006 -1.47734e-008 
-211.214 99.4327 26.5916 -2.04384 4.98315 -172.111 2.23285 10.9203 11.5747 -0.509427 36.834 -4.53452 2.116 -18.0578 -0.0495454 0.0462048 0.000530889 0.662642 -4.40516 10.621 -0.561175 2.77376 2.37958 -1.30934 6.51107 17.835 -24.9875 -33.6804 -4.70908 15.3205 -67.756 -52.8722 -30.6598 -172.282 65.6868 176.179 8.66491 9.00561 -7.79298 29.2809 -1.31011 -7.82112 49.6011 -24.1873 14.7647 5.2912 61.7847 8.88779 -1.69882 9.83969 2.1766 -1.75829 -22.7828 -11.6417 1.64394 20.1149 2.17062 -0.94461 6.48311 0.064457 -1.32485e-009 8.75259e-006 -1.47734e-008 
-212.819 99.5062 23.1507 -2.14549 5.5787 -174.004 0.929087 7.36363 9.16618 -0.565921 46.9258 -1.60973 4.80768 -11.6021 -0.0503703 0.0462048 0.000530889 0.662642 -4.73767 10.6251 -0.541521 2.60744 2.6901 -1.21785 7.11367 17.5859 -24.8863 -33.455 -4.68312 15.3218 -69.1599 -53.6718 -31.7322 -172.412 64.8728 177.492 8.14963 9.06112 -7.84448 29.3655 -1.25657 -7.66108 49.3648 -25.2937 12.5869 4.98276 61.3621 8.79604 -2.09533 9.81511 1.88527 -1.75357 -21.9833 -10.7377 0.402376 24.4877 4.03922 -0.0200134 3.88792 -0.0348287 -1.32485e-009 8.75259e-006 -1.47734e-008 
-214.315 99.7023 19.9588 -2.71185 5.96917 -176.68 -0.778818 1.53971 8.17515 -0.698726 58.0673 -0.587615 6.27965 -1.35421 -0.448033 0.0462048 0.000530889 0.662642 -5.30011 10.7869 -0.562163 1.33904 2.64234 -0.965906 7.39344 17.6146 -23.7494 -32.7217 -4.45939 14.975 -68.8677 -53.6633 -31.2664 -172.434 64.7951 177.444 8.54771 9.05777 -7.22146 29.8576 -1.23464 -7.54035 49.3857 -26.5936 11.2581 6.58926 62.5269 6.45324 -2.88226 9.75271 2.79811 -1.97788 -20.5197 -6.04964 0.462392 27.2001 2.75842 1.21701 0.774869 -0.109292 -1.32485e-009 8.75259e-006 -1.47734e-008 
-215.633 99.9446 17.0014 -3.41677 6.36327 -179.553 -2.06944 -4.23198 7.86301 -1.19909 66.8588 -2.05229 4.79809 6.64691 -0.682997 0.0462048 0.000530889 0.662642 -6.90257 10.8203 -0.324205 1.26634 3.02023 -0.92298 6.51251 17.7412 -22.3745 -32.9812 -4.47566 14.9362 -70.0675 -53.6069 -32.8189 -172.539 63.9965 178.126 8.8492 9.05602 -6.76321 30.1837 -1.37621 -7.89701 48.6034 -24.6025 10.9712 9.51881 60.7711 4.22694 -3.49995 9.71844 2.30235 -2.69649 -18.566 -3.27349 0.506432 28.7174 3.49436 2.06677 -2.0352 -0.10724 -1.32485e-009 8.75259e-006 -1.47734e-008 
-216.734 100.369 14.1476 -3.44674 7.14883 178.045 -1.75322 -8.20376 7.752 -1.79607 72.1137 -6.03487 2.05693 4.91763 -0.326257 0.0462048 0.000530889 0.662642 -8.10497 11.852 -0.585537 1.79927 2.57839 -1.57442 5.1411 18.2371 -20.453 -33.3042 -4.57448 15.0828 -71.3205 -54.2223 -34.6286 -172.625 62.4683 179.319 8.29896 9.03364 -8.00013 30.0058 -1.34651 -7.8295 49.2851 -24.2 10.3512 8.78052 60.5982 5.19568 -3.17634 9.7521 1.68623 -3.1295 -15.8192 -2.13036 0.569559 29.1378 5.09429 2.4477 -4.28247 -0.0614455 -1.32485e-009 8.75259e-006 -1.47734e-008 
-217.725 101.062 11.4123 -3.24032 7.62742 175.658 -1.06278 -11.8997 7.81106 -2.32643 73.9284 -8.18708 -0.0898797 2.26659 -0.0930587 0.0462048 0.000530889 0.662642 -8.664 12.1413 -0.790205 1.73513 2.61672 -1.93671 4.42781 18.517 -19.8062 -32.187 -3.9916 13.9251 -73.1418 -54.3046 -35.3405 -172.423 63.5213 179.668 8.18554 9.05866 -7.84142 30.8228 -1.67031 -8.62029 49.6533 -24.1377 10.4089 8.6232 60.9255 5.34806 -3.27753 9.74842 1.55084 -3.25232 -12.6699 -0.326279 0.588292 27.852 5.76394 3.07736 -5.58159 -0.0386217 -1.32485e-009 8.75259e-006 -1.47734e-008 
-218.675 101.833 8.7697 -2.92013 7.54304 172.971 0.0835205 -15.5962 8.65992 -2.27476 72.558 -8.79672 -0.537161 1.74322 -0.0663888 0.0462048 0.000530889 0.662642 -9.46904 11.8379 -1.19472 2.54728 2.79393 -2.6585 3.32765 18.9606 -18.7082 -32.0692 -4.07827 14.1779 -74.732 -53.2428 -37.0397 -172.342 64.2802 179.483 8.38392 9.09694 -6.87329 30.4665 -1.47214 -8.12665 50.234 -23.264 9.90768 7.8686 60.1962 6.4784 -3.43684 9.73363 1.80788 -3.51003 -9.68594 0.76295 0.582531 25.502 7.42356 3.08465 -6.29645 -0.0146411 -1.32485e-009 8.75259e-006 -1.47734e-008 
-219.469 102.467 6.15957 -2.62946 7.24009 170.755 1.03878 -18.4589 8.86803 -1.77017 68.5035 -8.04375 -1.18977 0.77167 -0.0287041 0.0462048 0.000530889 0.662642 -10.5661 11.7294 -1.51557 3.90301 2.41157 -3.38796 2.71329 19.5471 -17.7231 -31.7762 -3.89561 13.7792 -75.4117 -52.5512 -37.5372 -172.37 64.2377 179.271 8.15898 9.09018 -7.35727 30.2883 -1.51671 -8.26956 50.3551 -22.6001 9.49281 7.05558 59.848 7.55493 -3.26155 9.7376 2.13366 -3.99573 -6.97067 0.78645 0.534964 23.0349 9.7373 2.84007 -6.84775 0.00559123 -1.32485e-009 8.75259e-006 -1.47734e-008 
-220.157 102.929 3.59153 -2.10941 6.99569 169.123 2.08441 -20.0483 8.62577 -1.29934 61.9875 -7.49936 -0.770492 -0.568633 -0.0767255 0.0462048 0.000530889 0.662642 -11.1424 11.784 -2.12597 4.7945 1.98862 -4.2584 2.5654 19.9523 -16.6503 -30.9975 -3.63176 13.2865 -74.8005 -50.7938 -37.2363 -172.248 65.5862 177.544 8.6523 9.04079 -7.30067 30.8316 -1.69552 -8.68621 50.0383 -21.8533 9.07883 6.50871 59.1012 8.41955 -2.80754 9.76579 2.28259 -4.27197 -4.34261 0.827299 0.504191 20.7935 11.5461 2.80411 -7.50131 0.0260169 -1.32485e-009 8.75259e-006 -1.47734e-008 
-220.789 103.208 1.1512 -1.85137 6.67693 167.584 2.57481 -20.8721 7.74119 -0.98594 53.4133 -8.63318 0.138303 -0.772192 -0.135443 0.0462048 0.000530889 0.662642 -12.2471 11.7767 -2.34954 6.62017 1.80716 -4.9209 2.06095 19.6699 -15.8986 -30.9126 -3.48584 12.9173 -74.2777 -48.4547 -37.6428 -171.908 66.947 175.341 8.87984 9.04848 -6.81277 30.4785 -1.82729 -9.09525 50.4146 -23.2118 9.5036 8.44875 60.0578 5.82549 -2.919 9.74109 3.28951 -4.82315 -2.15129 0.722204 0.457674 18.9089 13.2432 3.06312 -8.08558 0.0450445 -1.32485e-009 8.75259e-006 -1.47734e-008 
-221.389 103.297 -1.22971 -1.71625 6.18022 166.014 3.23186 -20.9226 6.95041 -0.94827 43.0547 -11.642 -0.272538 0.177759 -0.10087 0.0462048 0.000530889 0.662642 -13.1914 11.3738 -2.59908 8.06127 2.18967 -5.49712 1.93261 18.9264 -15.3646 -30.7659 -3.45547 12.8645 -74.9176 -46.5046 -39.4156 -171.587 67.7365 174.029 8.74867 8.98476 -7.95689 30.4263 -1.90069 -9.3024 50.6196 -23.4009 9.95589 8.22015 60.454 5.97325 -3.0174 9.7384 2.99527 -5.43116 -0.496866 0.735083 0.277004 17.4907 14.9773 3.6207 -8.87584 0.0778003 -1.32485e-009 8.75259e-006 -1.47734e-008 
-221.898 103.221 -3.64301 -1.64013 6.09347 164.667 3.54703 -19.562 4.99689 -1.06989 31.7512 -13.367 -0.815066 2.50805 -0.031475 0.0462048 0.000530889 0.662642 -13.4605 11.8172 -2.75533 8.15399 1.71919 -5.71633 2.72454 18.6702 -15.5188 -29.7095 -3.01523 11.9223 -75.4645 -45.0952 -40.3686 -170.536 69.7894 172.142 8.50993 8.98085 -8.43296 31.1249 -1.9916 -9.44001 50.2442 -23.4931 9.37876 7.33661 60.3883 6.95648 -2.33445 9.79426 2.48856 -6.19996 1.37189 0.675806 0.141517 16.5542 16.489 4.06639 -9.95611 0.12722 -1.32485e-009 8.75259e-006 -1.47734e-008 
-222.304 102.952 -6.17436 -1.5154 6.46677 163.072 3.71447 -17.0977 2.33864 -0.452372 21.0474 -13.2795 -0.793631 4.2039 -0.0128375 0.0462048 0.000530889 0.662642 -13.3839 12.0129 -2.71153 8.02253 1.78182 -5.69101 3.25209 18.3956 -15.7205 -29.4896 -2.92476 11.7177 -76.0928 -43.4812 -42.2016 -170.377 69.9089 171.451 9.03172 8.91447 -8.5141 30.8143 -1.95317 -9.3848 50.5836 -24.0488 9.20753 6.97603 61.8184 7.10196 -2.08377 9.81465 2.10691 -7.22378 3.58132 0.655498 0.120045 15.9672 18.4883 3.62334 -11.1396 0.162622 -1.32485e-009 8.75259e-006 -1.47734e-008 
-222.73 102.57 -8.90189 -1.6869 6.67076 160.823 3.83929 -15.1008 2.66378 0.988775 12.8857 -16.0958 0.366672 4.91341 -0.129303 0.0462048 0.000530889 0.662642 -12.8495 11.1333 -2.65255 7.03536 2.29745 -5.33657 3.46805 18.7635 -15.861 -29.2789 -2.80549 11.4278 -76.8878 -42.5102 -43.7369 -169.017 71.8909 169.85 9.06709 8.93862 -8.27582 30.8151 -1.89543 -9.22857 50.528 -24.1629 9.05539 7.18683 62.8494 6.83968 -1.68036 9.84214 1.83822 -8.74167 5.32567 0.383202 -0.0314876 15.8252 21.5687 2.78625 -12.4101 0.178629 -1.32485e-009 8.75259e-006 -1.47734e-008 
-223.022 102.214 -11.6921 -1.71671 6.57283 158.515 4.58691 -13.6993 4.27852 1.70465 7.52159 -21.5668 0.341719 6.25565 -0.12206 0.0462048 0.000530889 0.662642 -12.119 10.2177 -2.59056 6.08504 2.12966 -4.91982 3.47109 20.1557 -15.8779 -29.139 -2.78796 11.4007 -77.7386 -42.1966 -44.5709 -167.364 73.868 168.201 6.57533 9.13683 -9.92092 31.1574 -1.90862 -9.21153 49.8286 -23.8773 8.58189 7.53355 63.4307 6.66117 -1.49464 9.85535 1.54889 -9.55215 6.02389 0.694414 -0.915085 17.2604 23.5414 2.10671 -13.7308 0.179979 -1.32485e-009 8.75259e-006 -1.47734e-008 
-223.21 101.833 -14.4763 -1.74091 6.50137 156.722 5.2056 -12.7166 4.33176 2.24399 5.2082 -27.7732 0.632515 6.14407 -0.157812 0.0462048 0.000530889 0.662642 -12.039 9.67487 -2.68491 6.49445 2.12004 -5.04065 2.87077 20.6416 -15.4386 -30.0011 -3.14896 12.223 -77.9373 -41.5577 -45.2458 -166.99 74.1554 167.641 7.65837 9.03013 -9.33978 30.9568 -1.85472 -9.09708 49.6558 -24.2555 8.78776 7.89602 64.5308 6.14283 -1.96231 9.82843 1.37606 -9.69583 5.7345 3.40192 -1.92482 20.8291 22.2319 0.431649 -14.9742 0.103744 -1.32485e-009 8.75259e-006 -1.47734e-008 
-223.228 101.515 -17.2849 -1.56268 6.58743 156.47 5.5424 -11.4723 3.83731 2.75519 4.4852 -32.5192 -1.8058 6.18761 0.146968 0.0462048 0.000530889 0.662642 -11.6442 9.61177 -3.27702 6.87474 2.09608 -5.68886 2.90854 20.3622 -15.1608 -29.7251 -2.89317 11.5768 -77.8403 -41.7682 -44.2252 -165.527 75.3729 165.967 7.64685 9.02628 -9.44408 31.001 -1.9706 -9.40291 49.5783 -24.761 8.85007 8.19795 63.9099 5.61004 -2.09583 9.81859 1.61201 -8.62326 4.9777 11.4127 -1.34654 26.4224 13.3629 -1.38724 -15.4681 -0.0196428 -1.32485e-009 8.75259e-006 -1.47734e-008 
